<?xml version="1.0" encoding="utf-8"?>
<!-- Generator: Adobe Illustrator 24.1.1, SVG Export Plug-In . SVG Version: 6.00 Build 0)  -->
<svg version="1.1" id="Layer_1" xmlns="http://www.w3.org/2000/svg" xmlns:xlink="http://www.w3.org/1999/xlink" x="0px" y="0px"
	 viewBox="0 0 512 512" style="enable-background:new 0 0 512 512;" xml:space="preserve">
<style type="text/css">
	.st0{fill:#555555;}
</style>
<g>
	<path class="st0" d="M494.1,0C504,0,512,8,512,17.9v211.9c0,94.7-76.8,171.5-171.5,171.5l-281.5,0l80.2,80.1c7,7,7,18.3,0,25.3
		c-7,7-18.3,7-25.3,0L5.3,398.2c-7-7-7-18.3,0-25.3l108.6-108.6c7-7,18.3-7,25.3,0c7,7,7,18.3,0,25.3l-75.9,75.9h277.2
		c74.9,0,135.6-60.7,135.6-135.6V17.9C476.2,8,484.2,0,494.1,0z"/>
</g>
</svg>
