<?xml version="1.0" encoding="utf-8"?>
<!-- Generator: Adobe Illustrator 24.1.1, SVG Export Plug-In . SVG Version: 6.00 Build 0)  -->
<svg version="1.1" id="Layer_1" xmlns="http://www.w3.org/2000/svg" xmlns:xlink="http://www.w3.org/1999/xlink" x="0px" y="0px"
	 viewBox="0 0 512 512" style="enable-background: new 0 0 512 512;" xml:space="preserve">
<g>
	<path d="M116.1,387.1l72.4-72.4V497L16.3,487l54.9-53.7C22.9,382.5-0.8,322.2,0,252.3S25.8,122.4,74.9,72.4
		C116.6,30.8,166.5,6.7,224.8,0l2.5,63.7c-41.6,6.7-77.4,25-107.4,54.9c-36.6,36.6-55.4,81-56.2,133
		C62.9,303.7,80.4,348.8,116.1,387.1 M323.4,13.8l172.3,10l-54.9,53.7c48.3,50.8,72,111.1,71.2,181.1s-25.8,129.9-74.9,179.8
		c-40,40.8-89.9,65.3-149.8,73.7L286,447c40.8-6.7,76.2-25,106.1-54.9c36.6-36.6,55.4-81,56.2-133s-16.6-97.2-52.4-135.5l-71.2,72.4
		L323.4,13.8"/>
</g>
</svg>
